<svg width="34" height="28" viewBox="0 0 34 28" fill="none" xmlns="http://www.w3.org/2000/svg">
<path d="M31.2424 7.94992L29.148 11.1951C30.158 13.2704 30.6525 15.5714 30.5872 17.892C30.5218 20.2126 29.8986 22.4802 28.7734 24.4917H5.17294C3.71054 21.8781 3.10457 18.8487 3.44486 15.8525C3.78515 12.8563 5.05359 10.0528 7.06213 7.8577C9.07067 5.66254 11.7124 4.19258 14.5956 3.66572C17.4789 3.13887 20.4502 3.58317 23.0691 4.93276L26.2192 2.77514C23.012 0.656497 19.2078 -0.292874 15.4149 0.0788874C11.6221 0.450649 8.0599 2.12206 5.29808 4.82578C2.53626 7.52949 0.734419 11.1093 0.180772 14.9925C-0.372876 18.8758 0.35366 22.8382 2.24416 26.2458C2.54132 26.7761 2.96799 27.2169 3.48179 27.5247C3.99559 27.8324 4.57862 27.9963 5.17294 28H28.7564C29.3565 28.0024 29.9465 27.8415 30.4668 27.5334C30.9871 27.2254 31.4191 26.7812 31.7192 26.2458C33.2881 23.446 34.0754 20.2541 33.9943 17.0224C33.9132 13.7906 32.9667 10.6449 31.2594 7.93238L31.2424 7.94992ZM14.5723 19.9484C14.8885 20.2746 15.2641 20.5333 15.6776 20.7099C16.091 20.8864 16.5341 20.9773 16.9817 20.9773C17.4292 20.9773 17.8724 20.8864 18.2858 20.7099C18.6992 20.5333 19.0748 20.2746 19.3911 19.9484L29.0288 5.05555L14.5723 14.9841C14.2556 15.3099 14.0044 15.6969 13.833 16.1228C13.6617 16.5487 13.5735 17.0052 13.5735 17.4662C13.5735 17.9273 13.6617 18.3838 13.833 18.8097C14.0044 19.2356 14.2556 19.6225 14.5723 19.9484Z" fill="#FEBBB2"/>
</svg>
